<mxfile host="app.diagrams.net" modified="2024-02-25T15:39:46.496Z" agent="Mozilla/5.0 (Windows NT 10.0; Win64; x64) AppleWebKit/537.36 (KHTML, like Gecko) Chrome/120.0.0.0 YaBrowser/24.1.0.0 Safari/537.36" version="23.1.6" etag="jYMhcpM1HEvgDdmwzJQo" type="github">
  <diagram name="Страница — 1" id="VGj5oVeRoZll33EJS3Qx">
    <mxGraphModel>
      <root>
        <mxCell id="0" />
        <mxCell id="1" parent="0" />
      </root>
    </mxGraphModel>
  </diagram>
</mxfile>
